<?xml version="1.0" standalone="no"?>
<!DOCTYPE svg PUBLIC "-//W3C//DTD SVG 20010904//EN"
 "http://www.w3.org/TR/2001/REC-SVG-20010904/DTD/svg10.dtd">
<svg version="1.0" xmlns="http://www.w3.org/2000/svg"
 width="606.000000pt" height="606.000000pt" viewBox="0 0 606.000000 606.000000"
 preserveAspectRatio="xMidYMid meet">
<metadata>
Created by potrace 1.14, written by Peter Selinger 2001-2017
</metadata>
<g transform="translate(0.000000,606.000000) scale(0.100000,-0.100000)"
fill="#000000" stroke="none">
<path d="M2410 4800 l0 -100 -57 -1 c-32 0 -122 0 -199 1 l-141 1 -2 -98 c-1
-54 -4 -99 -6 -101 -2 -2 -46 -3 -98 -3 l-95 1 -1 -97 c-1 -53 -3 -98 -5 -100
-2 -2 -46 -4 -99 -4 l-95 0 -2 -197 c0 -108 -2 -198 -4 -199 -2 -2 -47 -4
-100 -4 l-96 0 2 -297 3 -297 45 -2 c25 -1 69 -2 98 -2 l52 -1 0 -200 0 -200
-37 -1 c-21 0 -65 -1 -98 -2 l-60 -2 -3 -97 -3 -98 -32 -1 c-18 0 -62 0 -99 0
l-67 0 -3 -101 -3 -101 -98 2 -97 2 0 -203 0 -203 -99 3 -99 3 -1 -197 c0
-108 -2 -199 -5 -201 -2 -2 -46 -5 -97 -6 l-94 -2 -2 -278 -3 -277 2200 0
2200 0 0 280 0 280 -100 0 -100 0 0 400 0 400 23 1 c12 0 57 1 100 1 l77 0 0
99 0 99 28 1 c15 0 60 0 100 0 l72 0 0 300 0 299 -82 -1 c-46 0 -91 0 -100 0
-17 1 -18 18 -18 201 l0 199 -77 0 c-43 0 -88 0 -100 0 l-23 1 0 301 0 301
-42 -2 c-24 -1 -69 -1 -100 -1 l-58 1 0 100 0 99 -87 0 c-49 0 -93 0 -100 0
-9 1 -13 31 -15 99 l-3 97 -95 1 -95 2 -3 101 -3 101 -899 0 -900 -1 0 -99z"/>
</g>
</svg>
