<svg width="176" height="47" viewBox="0 0 176 47" fill="none" xmlns="http://www.w3.org/2000/svg">
<path d="M73.1911 12.5859H57.7871V16.4518H63.5562V32.8074H67.422V16.4518H73.1911V12.5859Z" fill="white"/>
<path d="M83.1896 17.4926H73.6141V32.8074H77.48V21.3585H83.1896V17.4926Z" fill="white"/>
<path d="M98.258 24.8377C98.258 20.6745 96.4143 17.4926 91.5969 17.4926C86.6605 17.4926 84.8168 20.9124 84.8168 25.1648C84.8168 27.9602 85.7981 32.8074 92.6674 32.8074C93.7974 32.8074 94.9275 32.8074 97.247 32.2721V28.4657C95.1951 28.9415 93.8569 28.9415 92.9648 28.9415C90.1695 28.9415 89.1881 28.1088 88.861 26.622H98.258V24.8377ZM91.5374 21.3585C93.3811 21.3585 94.2435 21.9532 94.3624 23.6482H88.7124C88.8908 22.0424 89.7532 21.3585 91.5374 21.3585Z" fill="white"/>
<path d="M113.647 28.9415V17.4926H102.049V21.3585H109.781V24.1835C109.037 23.3806 107.878 22.6966 105.647 22.6966C102.019 22.6966 100.324 25.0162 100.324 27.752C100.324 30.4878 102.019 32.8074 105.647 32.8074C107.878 32.8074 109.037 32.0937 109.781 31.3205V32.8074H115.58V28.9415H113.647ZM106.986 29.2983C104.963 29.2983 104.19 28.9415 104.19 27.752C104.19 26.5625 104.963 26.2057 106.986 26.2057C109.008 26.2057 109.781 26.5625 109.781 27.752C109.781 28.9415 109.008 29.2983 106.986 29.2983Z" fill="white"/>
<path d="M118.249 31.2015C120.42 32.3613 122.531 32.8074 124.851 32.8074C128.182 32.8074 131.036 31.3502 131.036 28.0196C131.036 25.1054 129.341 24.243 124.881 23.4401C122.502 22.994 122.115 22.8751 122.115 22.1911C122.115 21.5964 122.621 21.3585 123.691 21.3585C125.327 21.3585 127.676 21.8343 129.847 22.6074V18.7416C128.39 18.0279 125.981 17.4926 123.989 17.4926C120.807 17.4926 118.249 19.0389 118.249 21.9532C118.249 24.6296 119.587 25.938 124.256 26.622C126.635 27.0086 127.17 27.1275 127.17 27.9007C127.17 28.5846 126.576 28.9415 125.148 28.9415C122.948 28.9415 120.955 28.4062 118.249 27.0086V31.2015Z" fill="white"/>
<path d="M147.92 25.9678V17.4926H144.054V25.6704C144.054 28.3467 143.132 28.9415 140.664 28.9415C138.196 28.9415 137.274 28.3467 137.274 25.6704V17.4926H133.408V25.9678C133.408 30.9339 136.144 32.8074 140.664 32.8074C145.184 32.8074 147.92 30.9339 147.92 25.9678Z" fill="white"/>
<path d="M160.931 17.4926H151.355V32.8074H155.221V21.3585H160.931V17.4926Z" fill="white"/>
<path d="M175.999 24.8377C175.999 20.6745 174.155 17.4926 169.338 17.4926C164.402 17.4926 162.558 20.9124 162.558 25.1648C162.558 27.9602 163.539 32.8074 170.409 32.8074C171.539 32.8074 172.669 32.8074 174.988 32.2721V28.4657C172.936 28.9415 171.598 28.9415 170.706 28.9415C167.911 28.9415 166.929 28.1088 166.602 26.622H175.999V24.8377ZM169.279 21.3585C171.122 21.3585 171.985 21.9532 172.104 23.6482H166.454C166.632 22.0424 167.494 21.3585 169.279 21.3585Z" fill="white"/>
<path d="M22.1935 3.5608C22.1935 4.93498 22.841 6.26238 23.8389 7.24185C24.8368 8.22132 26.1823 8.86163 27.5782 8.86163C24.7864 8.86163 22.1935 11.4141 22.1935 14.1625C22.1935 11.4141 19.6006 8.86163 16.8087 8.86163C19.6006 8.86163 22.1935 6.30917 22.1935 3.5608Z" fill="#E3003D"/>
<path d="M43.7384 22.0968C43.7384 22.091 43.7384 22.0852 43.7384 22.0765C43.7384 22.0416 43.7384 22.0068 43.7384 21.9719V22.0968Z" fill="#E3003D"/>
<path d="M33.3936 7.58101C33.3907 7.58101 33.3877 7.58101 33.3818 7.58101C28.4336 7.07227 24.8249 4.89697 23.2686 1.05218C23.233 0.964468 23.2003 0.876754 23.1676 0.78904C29.087 1.04633 34.3856 3.65728 38.122 7.69503H36.3311C35.541 7.69503 34.1777 7.65702 33.3936 7.58101Z" fill="#E3003D"/>
<path d="M11.0051 7.5781C11.0022 7.5781 10.9992 7.5781 10.9933 7.5781C10.2062 7.65704 8.84588 7.69505 8.05584 7.69212H6.26488C10.0012 3.65729 15.2999 1.04635 21.2222 0.786133C21.1895 0.873846 21.1539 0.96156 21.1212 1.04927C19.5619 4.89406 15.9503 7.07228 11.0051 7.5781Z" fill="#E3003D"/>
<path d="M4.47389 19.0043H5.43917C5.26394 19.9691 5.17186 20.9603 5.17186 21.9749C5.17186 28.6323 9.11316 34.3805 14.8246 37.085V41.5292C14.8246 41.6549 14.8127 41.7777 14.786 41.8976C6.53513 38.9241 0.648429 31.1263 0.648429 21.9749C0.648429 21.5714 0.660308 21.1708 0.684068 20.7703C1.6137 19.6534 3.0037 19.0043 4.47389 19.0043Z" fill="#E3003D"/>
<path d="M3.89476 16.674C2.59089 16.674 1.34642 17.1857 0.431641 18.0833C0.987045 15.139 2.15726 12.4111 3.8116 10.0312H8.05585C8.82807 10.0312 10.2092 10.0692 10.9933 10.1452C10.9962 10.1452 10.9992 10.1452 11.0051 10.1452C15.9533 10.6539 19.562 12.8292 21.1183 16.674C21.8341 18.44 22.1935 20.5597 22.1935 23.0274C22.1935 20.5568 22.5499 18.44 23.2686 16.674C24.825 12.8292 28.4366 10.6539 33.3818 10.1452C33.3847 10.1452 33.3877 10.1452 33.3936 10.1452C34.1807 10.0662 35.5588 10.0312 36.3311 10.0312H40.5753C42.2267 12.4111 43.3999 15.139 43.9553 18.0833C43.0405 17.1857 41.799 16.674 40.4922 16.674H27.1832V41.5291C27.1832 42.991 27.9495 44.298 29.1316 45.0523C28.496 45.2657 27.8455 45.4499 27.1832 45.6049C25.5823 45.9791 23.9102 46.1779 22.1935 46.1779C20.4767 46.1779 18.8046 45.9791 17.2037 45.6049C16.5414 45.4499 15.8909 45.2657 15.2553 45.0523C16.4404 44.298 17.2037 42.991 17.2037 41.5291V16.674H3.89476Z" fill="#E3003D"/>
<path d="M39.215 21.9749C39.215 20.9603 39.1229 19.9691 38.9477 19.0043H39.913C41.3832 19.0043 42.7732 19.6534 43.7028 20.7732C43.7266 21.1708 43.7384 21.5714 43.7384 21.9778C43.7384 31.1292 37.8517 38.927 29.6008 41.9005C29.5771 41.7806 29.5622 41.6578 29.5622 41.5321V37.0879C35.2737 34.3805 39.215 28.6323 39.215 21.9749Z" fill="#E3003D"/>
</svg>
